<svg xmlns="http://www.w3.org/2000/svg" viewBox="0 0 359.29 365.72"><defs><style>.cls-1{fill:#fff;}</style></defs><g id="BARRA"><g id="adm"><path d="M7501,7470.93A111.24,111.24,0,0,0,7516,7527H7414.71c-55.84-9.63-45.81-72.16-45.81-72.16,5.89-91.4,62.17-91.62,62.17-91.62l10.47-.12c31.52,22.46,54.21,24.22,54.21,24.22,25,4.48,64-24.1,64-24.1a67,67,0,0,1,18.37,1.37A111.84,111.84,0,0,0,7501,7470.93Z" transform="translate(-7368.2 -7204.93)"/><circle cx="130.5" cy="82.43" r="76.78"/><path d="M7719.85,7484.36v-28.53c.1-12.88-27.2-10.72-27.2-10.72l-2.68-6.69c21.33-16.69,11.44-27.61,11.44-27.61s-15.14-15.45-23.8-22-24.82,13-24.82,13l-6.29-2.89c1.45-28.83-11.63-27.6-11.63-27.6s-14.22-.1-28.74,0h-.52a9,9,0,0,0-6.37,3c-6.57,7.15-4.75,24.49-4.75,24.49l-6.91,2.79c-16.58-22.56-27.29-11.44-27.29-11.44l-19.78,19.68c-12.46,16,11.85,27.6,10.82,28.53s-2.78,6.79-2.78,6.79l-15.94.08c-11,1.16-12,11.9-12,11.9V7485c1.23,10,11.43,12.06,11.43,12.06h16.3l2.78,6.72-8.57,8.5c-6,5.06-5.91,10.9-4.85,14.76a16.3,16.3,0,0,0,1.83,4.25l20.94,20.54a13,13,0,0,0,16.3-.46l11.27-10.89,6.57,2.62-.07,15.68c1.08,9.66,10.73,11.9,10.73,11.9h28.9a13.17,13.17,0,0,0,12.21-11.82l.08-15.6,6.48-2.86c15.61,21.63,28.51,11.28,28.51,11.28l19.93-20.94c9.43-13.2-11.46-26.88-11.46-26.88l2.58-6.8C7723.14,7497.34,7719.85,7484.36,7719.85,7484.36Zm-99.6,30c-1.47,0-2.93-.07-4.37-.21a43.53,43.53,0,1,1,4.37.21Z" transform="translate(-7368.2 -7204.93)"/><path class="cls-1" d="M7508.5,7465.28a111.24,111.24,0,0,0,15.07,56.08H7422.25c-55.84-9.63-45.81-72.16-45.81-72.16,5.89-91.4,62.17-91.62,62.17-91.62l10.47-.12c31.52,22.46,54.21,24.22,54.21,24.22,25,4.48,64-24.1,64-24.1a67,67,0,0,1,18.37,1.37A111.84,111.84,0,0,0,7508.5,7465.28Z" transform="translate(-7368.2 -7204.93)"/><circle class="cls-1" cx="138.03" cy="76.78" r="76.78"/><path class="cls-1" d="M7727.39,7478.71v-28.53c.1-12.88-27.2-10.72-27.2-10.72l-2.68-6.69c21.33-16.69,11.44-27.61,11.44-27.61s-15.14-15.45-23.8-22-24.82,13-24.82,13l-6.29-2.89c1.45-28.83-11.63-27.6-11.63-27.6s-14.22-.1-28.74,0h-.52a9,9,0,0,0-6.37,3c-6.57,7.15-4.75,24.49-4.75,24.49l-6.91,2.79c-16.58-22.56-27.29-11.44-27.29-11.44l-19.78,19.68c-12.46,16,11.85,27.6,10.82,28.53s-2.78,6.79-2.78,6.79l-15.94.08c-11,1.16-12,11.9-12,11.9v27.88c1.23,10,11.43,12.06,11.43,12.06h16.3l2.78,6.72-8.57,8.5c-6,5.06-5.91,10.9-4.85,14.76a16.3,16.3,0,0,0,1.83,4.25l20.94,20.54a13,13,0,0,0,16.3-.46l11.27-10.89,6.57,2.62-.07,15.68c1.08,9.66,10.73,11.9,10.73,11.9h28.9a13.17,13.17,0,0,0,12.21-11.82l.08-15.6,6.48-2.86c15.61,21.63,28.51,11.28,28.51,11.28l19.93-20.94c9.43-13.2-11.46-26.88-11.46-26.88l2.58-6.8C7730.68,7491.69,7727.39,7478.71,7727.39,7478.71Zm-99.6,30c-1.47,0-2.93-.07-4.37-.21a43.53,43.53,0,1,1,4.37.21Z" transform="translate(-7368.2 -7204.93)"/></g></g></svg>