<svg xmlns="http://www.w3.org/2000/svg" viewBox="0 0 377.48 303.12"><defs><style>.cls-1{fill:#fff;}</style></defs><g id="BARRA"><g id="ticket"><path d="M7865.18,6900.71l-21.13-18.26-1.92-1.66a35.67,35.67,0,0,1-53.77-46.54l-22.74-18.45-9.19.75c-.25,0-20.61,22.74-32.4,35.9a5.66,5.66,0,0,1,2.85,1.37l5,4.48a5.67,5.67,0,0,1,.45,8l-.69.78a5.7,5.7,0,0,1-8,.44l-5-4.47a5.71,5.71,0,0,1-1.67-2.67l-1.1,1.23L7583,7021.2l.7,8.5,22.18,19.44.28.24a35.66,35.66,0,0,1,54.32,45.89l23.23,19.18h.16l8.57-.7,14.39-16.86,120.82-141.55,0,0-.12-.1-5-4.48a5.68,5.68,0,0,1-.44-8l.69-.77a5.68,5.68,0,0,1,8-.45l3.78,3.39,1.12,1,6.41-7.66,8.4-10.05,6.49-7.76,8.89-10.63Zm-85,7,.7-.78a5.7,5.7,0,0,1,8-.45l5,4.47a5.69,5.69,0,0,1,.45,8l-.7.78a5.68,5.68,0,0,1-8,.44l-5-4.47A5.68,5.68,0,0,1,7780.23,6907.74Zm-20.71-17.83.7-.76a5.66,5.66,0,0,1,8-.45l4.18,3.74.81.73a5.68,5.68,0,0,1,.45,8l-.7.77a5.66,5.66,0,0,1-8,.44l-1.42-1.27L7760,6898A5.69,5.69,0,0,1,7759.52,6889.91ZM7738.28,6872l.7-.76a5.66,5.66,0,0,1,8-.45l5,4.46a5.69,5.69,0,0,1,.45,8l-.7.76a5.66,5.66,0,0,1-8,.45l-5-4.46A5.69,5.69,0,0,1,7738.28,6872Zm71.39,67.07a5.69,5.69,0,0,1-3.33-1.43l-5-4.47a5.68,5.68,0,0,1-.45-8l.7-.78a5.68,5.68,0,0,1,8-.44l5,4.46a5.7,5.7,0,0,1,.43,8l-.69.77a5,5,0,0,1-1,.89A5.6,5.6,0,0,1,7809.67,6939.07Z" transform="translate(-7583.01 -6815.07)"/><path class="cls-1" d="M7870.18,6900l-21.13-18.26-1.92-1.66a35.67,35.67,0,0,1-53.77-46.54l-22.74-18.45-9.19.75c-.25,0-20.61,22.74-32.4,35.9a5.66,5.66,0,0,1,2.85,1.37l5,4.48a5.67,5.67,0,0,1,.45,8l-.69.78a5.7,5.7,0,0,1-8,.44l-5-4.47a5.71,5.71,0,0,1-1.67-2.67l-1.1,1.23L7588,7020.47l.7,8.5,22.18,19.44.28.24a35.66,35.66,0,0,1,54.32,45.89l23.23,19.18h.16l8.57-.7,14.39-16.86,120.82-141.55,0,0-.12-.1-5-4.48a5.68,5.68,0,0,1-.44-8l.69-.77a5.68,5.68,0,0,1,8-.45l3.78,3.39,1.12,1,6.41-7.66,8.4-10.05,6.49-7.76,8.89-10.63Zm-85,7,.7-.78a5.7,5.7,0,0,1,8-.45l5,4.47a5.69,5.69,0,0,1,.45,8l-.7.78a5.68,5.68,0,0,1-8,.44l-5-4.47A5.68,5.68,0,0,1,7785.23,6907Zm-20.71-17.83.7-.76a5.66,5.66,0,0,1,8-.45l4.18,3.74.81.73a5.68,5.68,0,0,1,.45,8l-.7.77a5.66,5.66,0,0,1-8,.44l-1.42-1.27-3.57-3.19A5.69,5.69,0,0,1,7764.52,6889.18Zm-21.24-17.91.7-.76a5.66,5.66,0,0,1,8-.45l5,4.46a5.69,5.69,0,0,1,.45,8l-.7.76a5.66,5.66,0,0,1-8,.45l-5-4.46A5.69,5.69,0,0,1,7743.28,6871.27Zm71.39,67.07a5.69,5.69,0,0,1-3.33-1.43l-5-4.47a5.68,5.68,0,0,1-.45-8l.7-.78a5.68,5.68,0,0,1,8-.44l5,4.46a5.7,5.7,0,0,1,.43,8l-.69.77a5,5,0,0,1-1,.89A5.6,5.6,0,0,1,7814.67,6938.34Z" transform="translate(-7583.01 -6815.07)"/><path d="M7949.88,7016.57l-.61-2.46a35.67,35.67,0,0,1-36.38-53.41,35.29,35.29,0,0,1,19.39-15.64l-7.9-28.2-7.94-4.7c-.22-.12-30,6.65-47.18,10.58a5.65,5.65,0,0,1,1.53,2.77l1.48,6.54a5.66,5.66,0,0,1-4.26,6.8l-1,.24a5.69,5.69,0,0,1-6.8-4.28l-1.5-6.54a5.65,5.65,0,0,1,.18-3.14l-1.61.37-5.64,1.5-37.19,9.92-3.68,1L7656.66,6979l-4.34,7.34,6.87,28.69.09.35a35.65,35.65,0,0,1,40.25,24.4,35.65,35.65,0,0,1-22.43,44.44l7.86,29.06v0l7.54,4.46,21.49-5.44,180.39-45.72h0c0-.05,0-.09,0-.15l-1.49-6.54a5.69,5.69,0,0,1,4.27-6.81l1-.22a5.68,5.68,0,0,1,6.81,4.26l1.12,4.95.34,1.47,9.66-2.55,22.44-5.94,13.4-3.53,4.64-7.84ZM7828.64,6954l-5-4.48a5.68,5.68,0,0,1-.44-8l.69-.77a5.68,5.68,0,0,1,8-.45l3.78,3.39,1.12,1-8.05,9.43Zm38.17,6.24-1.5-6.53a5.7,5.7,0,0,1,4.28-6.82l1-.22a5.68,5.68,0,0,1,6.81,4.27l1.49,6.52a5.68,5.68,0,0,1-4.28,6.83l-1,.21A5.65,5.65,0,0,1,7866.81,6960.28Zm7,26.89-.43-1.86-1.07-4.67a5.69,5.69,0,0,1,4.28-6.82l1-.22a5.67,5.67,0,0,1,6.8,4.27l1.26,5.47.23,1.06a5.69,5.69,0,0,1-4.27,6.82l-1,.22A5.66,5.66,0,0,1,7873.8,6987.17Zm6.6,26.51-1.49-6.53a5.69,5.69,0,0,1,4.27-6.81l1-.23a5.7,5.7,0,0,1,6.82,4.27l1.49,6.53a5.71,5.71,0,0,1-4.28,6.82l-1,.23A5.69,5.69,0,0,1,7880.4,7013.68Zm14.63,30.2-1,.23a5.69,5.69,0,0,1-6.81-4.28l-1.49-6.53a5.69,5.69,0,0,1,4.27-6.81l1-.23a5.68,5.68,0,0,1,6.8,4.27l1.52,6.54A5.71,5.71,0,0,1,7895,7043.88Z" transform="translate(-7583.01 -6815.07)"/><path class="cls-1" d="M7953.8,7017l-.61-2.46a35.67,35.67,0,0,1-36.38-53.41,35.29,35.29,0,0,1,19.39-15.64l-7.9-28.2-7.94-4.7c-.22-.12-30,6.65-47.18,10.58a5.65,5.65,0,0,1,1.53,2.77l1.48,6.54a5.66,5.66,0,0,1-4.26,6.8l-1,.24a5.69,5.69,0,0,1-6.8-4.28l-1.5-6.54a5.65,5.65,0,0,1,.18-3.14l-1.61.37-5.64,1.5-37.19,9.92-3.68,1-154.09,41.09-4.34,7.34,6.87,28.69.09.35a35.65,35.65,0,0,1,40.25,24.4,35.65,35.65,0,0,1-22.43,44.44l7.86,29.06v0l7.54,4.46,21.49-5.44L7898.31,7067h0c0-.05,0-.09,0-.15l-1.49-6.54a5.69,5.69,0,0,1,4.27-6.81l1-.22a5.68,5.68,0,0,1,6.81,4.26l1.12,4.95.34,1.47,9.66-2.55,22.44-5.94,13.4-3.53,4.64-7.84Zm-121.24-62.53-5-4.48a5.68,5.68,0,0,1-.44-8l.69-.77a5.68,5.68,0,0,1,8-.45l3.78,3.39,1.12,1-8,9.43Zm38.17,6.24-1.5-6.53a5.7,5.7,0,0,1,4.28-6.82l1-.22a5.68,5.68,0,0,1,6.81,4.27l1.49,6.52a5.68,5.68,0,0,1-4.28,6.83l-1,.21A5.65,5.65,0,0,1,7870.73,6960.72Zm7,26.89-.43-1.86-1.07-4.67a5.69,5.69,0,0,1,4.28-6.82l1-.22a5.67,5.67,0,0,1,6.8,4.27l1.26,5.47.23,1.06a5.69,5.69,0,0,1-4.27,6.82l-1,.22A5.66,5.66,0,0,1,7877.72,6987.61Zm6.6,26.51-1.49-6.53a5.69,5.69,0,0,1,4.27-6.81l1-.23a5.7,5.7,0,0,1,6.82,4.27l1.49,6.53a5.71,5.71,0,0,1-4.28,6.82l-1,.23A5.69,5.69,0,0,1,7884.32,7014.12Zm14.63,30.2-1,.23a5.69,5.69,0,0,1-6.81-4.28l-1.49-6.53a5.69,5.69,0,0,1,4.27-6.81l1-.23a5.68,5.68,0,0,1,6.8,4.27l1.52,6.54A5.71,5.71,0,0,1,7899,7044.32Z" transform="translate(-7583.01 -6815.07)"/></g></g></svg>