<svg xmlns="http://www.w3.org/2000/svg" viewBox="0 0 1081 1081">
  <defs>
    <style>
      .cls-1, .cls-4, .cls-5, .cls-6 {
        fill: #fff;
      }

      .cls-1 {
        stroke: #000;
        stroke-miterlimit: 10;
        opacity: 0;
      }

      .cls-2 {
        fill: #0a3d89;
      }

      .cls-3 {
        fill: #005eae;
      }

      .cls-4, .cls-5, .cls-6 {
        font-size: 251.4px;
        font-family: TimesNewRomanPS-BoldMT, Times New Roman;
        font-weight: 700;
      }

      .cls-4 {
        letter-spacing: -0.04em;
      }

      .cls-6 {
        letter-spacing: -0.06em;
      }

      .cls-7 {
        fill: #4f5de4;
      }

      .cls-8 {
        fill: #3b3fa2;
      }

      .cls-9 {
        fill: #3f4ec1;
      }
    </style>
  </defs>
  <g id="Layer_2" data-name="Layer 2">
    <rect class="cls-1" x="0.5" y="0.5" width="1080" height="1080"/>
  </g>
  <g id="fsa">
    <circle class="cls-2" cx="258.15" cy="723.61" r="134.46"/>
    <circle class="cls-3" cx="542.39" cy="723.61" r="134.46"/>
    <circle class="cls-2" cx="822.85" cy="723.61" r="134.46"/>
    <text class="cls-4" transform="translate(185.35 810.31)">F</text>
    <text class="cls-5" transform="translate(473.46 810.31)">S</text>
    <text class="cls-6" transform="translate(736.21 810.31)">A</text>
  </g>
  <g id="E">
    <path class="cls-7" d="M6895.09,7011a46,46,0,0,1-46,46h-56.46a46,46,0,0,0-38.4,20.71,44.85,44.85,0,0,0-5,10.15v-44a41,41,0,0,1,1.91-6.09,45.34,45.34,0,0,1,8.82-14.23,46,46,0,0,1,22.75-13.64h112.36C6895.09,7010.22,6895.09,7010.59,6895.09,7011Z" transform="translate(-6659 -6659)"/>
    <path class="cls-8" d="M6828.49,7148h-42.62a46,46,0,0,1-36.64-45v-15.13a44.31,44.31,0,0,1,5-10.16,46,46,0,0,1,38.4-20.71h2.61v38.28a36.85,36.85,0,0,0,29.32,52.55A36,36,0,0,0,6828.49,7148Z" transform="translate(-6659 -6659)"/>
    <path class="cls-9" d="M6940.07,7141.25a44.14,44.14,0,0,1-.5,6.75H6828.49a36,36,0,0,1-3.91-.21,36.85,36.85,0,0,1-29.32-52.55v0h98.83A46,46,0,0,1,6940.07,7141.25Z" transform="translate(-6659 -6659)"/>
    <path class="cls-9" d="M6940.07,6931.61a47.28,47.28,0,0,1-47.28,47.28h-97.53v-3.83c-.43,0-.86,0-1.29,0a45.64,45.64,0,0,0-18.46,3.86c-1,.45-2.07.95-3.06,1.48-.29.14-.57.3-.86.46-.55.3-1.08.63-1.61.95s-.84.52-1.25.79c-.92.59-1.81,1.22-2.67,1.9-.36.27-.71.55-1.06.83l-1.17,1-1.15,1h0l-1.09,1.06c-.36.36-.72.73-1.07,1.1s-.7.75-1,1.13-.68.78-1,1.17c-.65.77-1.26,1.58-1.85,2.4,0,0,0,0,0,0-.4.56-.79,1.12-1.16,1.7s-.75,1.16-1.09,1.75-.54.93-.78,1.39a2.37,2.37,0,0,0-.19.35c-.08.13-.15.27-.22.41-.2.36-.38.73-.56,1.1,0,0,0,0,0,.05-.13.28-.28.55-.4.84s-.19.4-.27.6-.17.4-.26.59c-.17.39-.33.79-.49,1.19h0l-.46,1.23q-.24.65-.45,1.32a0,0,0,0,0,0,0,.14.14,0,0,0,0,.07l-.07.16a14.74,14.74,0,0,0-.55,1.7c0,.14-.08.29-.1.43a5.18,5.18,0,0,0-.14.75h0a2.63,2.63,0,0,0-.14.5V6960a36.49,36.49,0,0,1,3-8.34,57.91,57.91,0,0,1,20.44-19.33,48.09,48.09,0,0,1,10.83-3.64H6940C6940,6929.65,6940.07,6930.62,6940.07,6931.61Z" transform="translate(-6659 -6659)"/>
    <path class="cls-8" d="M6795.26,6975.06v34.8h-12.55a46,46,0,0,0-22.76,13.65,45.27,45.27,0,0,0-8.81,14.23,42,42,0,0,0-1.92,6.07v-33.45a2.63,2.63,0,0,1,.14-.5h0a5.18,5.18,0,0,1,.14-.75c0-.14.07-.29.1-.43a14.74,14.74,0,0,1,.55-1.7l.07-.16a.14.14,0,0,1,0-.07,0,0,0,0,1,0,0c.15-.45.29-.89.45-1.32l.46-1.23h0c.16-.4.32-.8.49-1.19.09-.19.18-.39.26-.59s.17-.4.27-.6.27-.56.4-.84c0,0,0,0,0-.05.18-.36.37-.74.56-1.1.07-.14.14-.28.22-.41a2.37,2.37,0,0,1,.19-.35c.24-.46.5-.93.78-1.39s.71-1.18,1.09-1.75.76-1.14,1.16-1.7c0,0,0,0,0,0,.6-.82,1.21-1.63,1.85-2.4.32-.39.65-.79,1-1.17s.67-.76,1-1.13.71-.74,1.07-1.1l1.09-1.06h0l1.15-1,1.17-1c.35-.28.7-.56,1.06-.83.86-.68,1.75-1.31,2.67-1.9.41-.27.83-.54,1.25-.79s1.06-.65,1.61-.95c.29-.16.57-.32.86-.46,1-.53,2-1,3.06-1.48A45.64,45.64,0,0,1,6794,6975C6794.4,6975,6794.83,6975,6795.26,6975.06Z" transform="translate(-6659 -6659)"/>
  </g>
  <g id="X">
    <path class="cls-9" d="M7189.15,6937.82l-70.06,84.45-.4.48-12.77,15.38-31.84-38.37,35.06-42.24s0,0,0,0l4.27-5.15.05-.06,5.88-7.1.05,0a55.18,55.18,0,0,1,69.73-7.32Z" transform="translate(-6659 -6659)"/>
    <path class="cls-8" d="M7074.08,6999.76l-31.82,38.37-12.67-15.27-.44-.52-70.07-84.48a55.19,55.19,0,0,1,69.14,6.62l7.2,8.68,6.4,7.71Z" transform="translate(-6659 -6659)"/>
    <path class="cls-8" d="M7189.19,7138.46l-1.17,1a55.2,55.2,0,0,1-67.49-7h0l-4.71-5.7s0,0-.06-.07l-3.29-4-38.38-46.24,31.84-38.36,13.27,16,1.75,2.1Z" transform="translate(-6659 -6659)"/>
    <path class="cls-7" d="M7105.92,7038.13l-31.84,38.36-38.76,46.71a0,0,0,0,1,0,0l-4.61,5.56s0,0,0,0l-2.82,3.39a55.33,55.33,0,0,1-66.24,8.42,0,0,0,0,0,0,0l-2.59-2.16,68.13-82.09,1.82-2.19,13.3-16.05,31.82-38.37Z" transform="translate(-6659 -6659)"/>
  </g>
  <g id="P">
    <path class="cls-8" d="M7279.35,7027.52v10.37a10.45,10.45,0,0,0-1.13,0,47.49,47.49,0,0,0-7.5,1,49.68,49.68,0,0,0-38,38c-.18.77-.32,1.56-.44,2.37V6978a49.6,49.6,0,0,1,47.05,49.5Z" transform="translate(-6659 -6659)"/>
    <path class="cls-9" d="M7394.73,7031a47.83,47.83,0,0,1-.46,6.82,53.19,53.19,0,0,1-49.6,46.3,49.53,49.53,0,0,1-5.18.28h-57.62c-.49,0-1,0-1.49,0s-.68,0-1,0h-.21A49.57,49.57,0,0,0,7232.3,7134v-54.62c.12-.81.26-1.6.44-2.37a49.68,49.68,0,0,1,38-38,47.49,47.49,0,0,1,7.5-1,10.45,10.45,0,0,1,1.13,0v-.06h67.91a29.94,29.94,0,0,0,7.28-58.43A53.24,53.24,0,0,1,7394.73,7031Z" transform="translate(-6659 -6659)"/>
    <path class="cls-8" d="M7279.35,7084.48V7112a49.64,49.64,0,0,1-45,36.09c-.67,0-1.35.07-2.05.07V7134a49.57,49.57,0,0,1,46.84-49.47Z" transform="translate(-6659 -6659)"/>
    <path class="cls-7" d="M7421.58,7008.74a78.51,78.51,0,0,1-57.68,75.67h-24.41a49.53,49.53,0,0,0,5.18-.28,53.19,53.19,0,0,0,49.6-46.3,47.83,47.83,0,0,0,.46-6.82,53.24,53.24,0,0,0-40.19-51.61.42.42,0,0,0-.13,0,50,50,0,0,0-7.92-1.33q-.45-.06-.9-.09H7257a49.87,49.87,0,0,1-9.36-1.21h0a52.84,52.84,0,0,1-42.91-46.35v-.08h138.48a78.45,78.45,0,0,1,78.44,78.43Z" transform="translate(-6659 -6659)"/>
  </g>
  <g id="O">
    <path class="cls-8" d="M7653.69,7039.14a108.85,108.85,0,0,1-162.53,94.68c6.73,3.24,18.85,6.22,32.86,7.74,3.92.44,7.74.73,11.35.86a1,1,0,0,0,.25,0c2,.15,4.06.21,6.13.21a78.5,78.5,0,0,0,8.71-.47c.69-.06,1.36-.13,2-.21l1.06-.14c1-.13,2-.3,2.9-.47l.49-.1a82.93,82.93,0,0,0,15.35-158.64,62,62,0,1,0-32.93,116.66,84.53,84.53,0,0,1-9.59-167.92,107.59,107.59,0,0,1,14.11-1h1A108.83,108.83,0,0,1,7653.69,7039.14Z" transform="translate(-6659 -6659)"/>
    <path class="cls-7" d="M7624.66,7059.72a82.93,82.93,0,0,1-67.75,81.54l-.48.1c-.91.17-1.88.33-2.91.47-.35.05-.7.1-1.05.13-.64.09-1.31.15-2,.22a78.68,78.68,0,0,1-8.72.47c-2.06,0-4.11-.07-6.13-.22h-.25c-3.61-.14-7.42-.42-11.35-.86-14-1.53-26.12-4.5-32.86-7.74l-.1,0c-1.16-.66-2.28-1.33-3.41-2a108.84,108.84,0,0,1,42.1-200.38,84.53,84.53,0,0,0,9.59,167.92l1.56.07,2.18,0,2.18,0,1.66-.07a62,62,0,0,0,25.34-116.66,82.73,82.73,0,0,1,52.4,77.1Z" transform="translate(-6659 -6659)"/>
  </g>
</svg>
