<svg xmlns="http://www.w3.org/2000/svg" viewBox="0 0 980.01 456.06">
  <defs>
    <style>
      .cls-1 {
        fill: #4f5de4;
      }

      .cls-2 {
        fill: #757777;
      }

      .cls-3 {
        fill: #ccdb42;
      }

      .cls-4 {
        fill: #ed2f2f;
      }

      .cls-5 {
        fill: #3055f2;
      }

      .cls-6 {
        fill: #ef802e;
      }

      .cls-7 {
        fill: #38347f;
      }

      .cls-8 {
        fill: #f4662f;
      }

      .cls-9 {
        fill: #cef236;
      }

      .cls-10 {
        fill: #2fed53;
      }

      .cls-11 {
        fill: #3c423d;
      }

      .cls-12, .cls-14 {
        fill: #fff;
      }

      .cls-13 {
        fill: #e252a8;
      }

      .cls-14, .cls-15 {
        stroke: #deedc9;
        stroke-miterlimit: 10;
        stroke-width: 3px;
      }

      .cls-15 {
        fill: none;
      }
    </style>
  </defs>
  <g id="MAPA">
    <g id="Layer_19" data-name="Layer 19">
      <g>
        <path class="cls-1" d="M7495.12,7160.26s-19,6.47-27.29,14l-35,25.83-10.33-18.23-8,4.9,10.83,18.32-15.83,11.67-46.65,1.66-3.86-3.22-21.76-37.7,49.56-28.61-11.33-17.7-24.74-38.38-87.93,53.31,23.67,39,3.92,7.45s1.67,2.5,0,3.33l-38.52-.47-96.42-2.86v-8.33l16.66.83v-6.66l-15.83-.84,2.5-50.81s1.67-12.49-16.66-29.15l5.83-9.16,18.33,11.66,15-3.34v18.33h13.33v-18.33l36.65.84.83,16.66h8.33v-24.16l-35.82-.83v-3.32l2.08-27.28,43.11-10.05,18.13-4.33,41.65-10.83-4.71-18.75-72.76,19.58-1.66,5-45.82,18.32-31.65,8.33-20,28.33-135.78-9.17v-13.62s-4.17-19.7-9.16-25.53l100.79,1.67.41-97h-80v89.13H6966v-89.13h-8.25v89.13h-10.07l-27.49-.86v-88.27h-8v93.29l.1,2.92s-26.65,18.32-36.65,45l-46.94-20.7-26.9-8.68-4.46,19.38,34.15,10-11.66,25,44.44,22.7,11.37-25.2s5.83,29.15,29.16,35.82l-.84,21.65-124.11-11.66-89.77-2.94s-1.86,11.27-11.85,4.61l-27.49-20-6.67,6.66L6754.79,7225l-19.39,30.18,96,58.11-.83,10,15.83,5,3-9.3,5.34-9.86,19.16,8.33-5,25.82,16.66,1.67,2.5-18.33s71.64,12.49,93.29,11.66l129.22-1.66H7113V7302.5h9.17l-.84,49.15,27.08-.59v-2.54l2.08-43.52s12.49-3.33,13.33,5.83l7.87,36.8s24.34,0,23.64-3.8-9.42-44.12-9.42-44.12l60.79-19.28.83-37.49-78.3-2-1.25,39.89-15-.84,3.33-79.13,134.94,1.66a18.39,18.39,0,0,1,15.83,10.83l9.16,15.83s2.5,10-2.49,19.16c0,0-7.5,12.49-14.17,16.66l9.17,19.16s5,7.49-10,11.66l12.08,17.91,40.55-47.9,8.11-5.33,128.89-84.65,28.2-5v-10.58Zm-571.23-111,55.81-2.49c10.83,12.49,10,40,10,40s-55,10.83-55.81,11.66c-23.88,8.23-50.19-3.06-50.8-3.32h0C6897.23,7058.44,6923.89,7049.27,6923.89,7049.27ZM6706.53,7180.8s-3.88-6.49,1.78-10.28l45.75,33.47,1.56,1.05,2.5-3.33,9.16.83-8.33,15Zm128.23,130-8.63-4.64,22.18-35.2-70-44.1-22.18,35.2-3.86-2.9,32.49-55.81,100,9.16ZM7124.64,7280l-11.12-.39v-13.77l-136.71.69c-22.05.69-89.57-9.85-89.57-9.85L6875.57,7310l-17.49-6.66,44.15-88.3,3.91-.29-.16,2.37,212.18,14.55,2.29-33.29h8.35Zm8.33-140.77-3.34,52.48h-16.41l-202.38-45.51c-22.21-5.52-30-36.89-30-36.89s18.92,5.76,28.92,4.09c0,0,7.71-1,17.41-1.69,12.4-.93,28.06-1.47,35.06.86l156.61,10S7133.8,7123.41,7133,7139.24Z" transform="translate(-6536.55 -6950.57)"/>
        <rect class="cls-1" x="6836.17" y="7311.08" width="7.78" height="17.04" transform="translate(-8983.33 4126.37) rotate(-68.97)"/>
        <rect class="cls-1" x="7167.71" y="7324.46" width="23.5" height="6.01" transform="matrix(0.98, -0.21, 0.21, 0.98, -7896.29, -5308.03)"/>
        <rect class="cls-1" x="6694.33" y="7086.28" width="82.13" height="106.35" transform="translate(-9540.37 1407.47) rotate(-53.8)"/>
        <rect class="cls-1" x="6781.43" y="7225.18" width="41.6" height="82.72" transform="translate(-9508.63 2196.33) rotate(-57.78)"/>
        <polygon class="cls-1" points="581.62 281.1 369.43 266.56 374.29 195.64 376.08 169.5 588.27 184.05 581.62 281.1"/>
        <rect class="cls-1" x="6764.25" y="7046.1" width="15.56" height="31.65" transform="translate(-8248.59 4984.92) rotate(-76.08)"/>
        <rect class="cls-1" x="6802.01" y="7048.19" width="15.56" height="45.74" transform="translate(-8228.79 5028.51) rotate(-76.08)"/>
        <rect class="cls-1" x="6739.31" y="7059.37" width="25.82" height="6.02" transform="translate(-8264.08 4966.04) rotate(-76.08)"/>
        <rect class="cls-1" x="6830.89" y="7089.26" width="35.94" height="36.41" transform="translate(-9081.49 3186.65) rotate(-63.94)"/>
        <rect class="cls-1" x="472.72" width="30.82" height="89.13"/>
        <rect class="cls-1" x="552.69" width="22.49" height="49.98"/>
        <rect class="cls-1" x="7164.51" y="7058.42" width="89.4" height="26.09" transform="translate(-7954.77 -5127.51) rotate(-13.13)"/>
        <rect class="cls-1" x="7143.38" y="7129.62" width="85" height="41.65" transform="translate(-6738.61 7141.35) rotate(-88.07)"/>
        <rect class="cls-1" x="7190.43" y="7131.87" width="85" height="40.78" transform="translate(-6694.95 7190.13) rotate(-88.07)"/>
        <rect class="cls-1" x="7286.83" y="6983.94" width="47.57" height="28.75" transform="translate(-8077.13 -4859.17) rotate(-14.75)"/>
        <rect class="cls-1" x="7334.41" y="6970.92" width="16.65" height="45.09" transform="translate(-8074.83 -4851.16) rotate(-14.75)"/>
        <rect class="cls-1" x="7256.12" y="7025.44" width="58" height="39.16" transform="matrix(0.97, -0.25, 0.25, 0.97, -8089.85, -4864.12)"/>
        <rect class="cls-1" x="7340.75" y="7146.99" width="110.23" height="43.52" transform="translate(-9130.06 -2292.2) rotate(-30)"/>
        <rect class="cls-1" x="7263.06" y="7101.3" width="159.96" height="45.65" transform="translate(-9166.04 -2111.58) rotate(-31.23)"/>
        <polygon class="cls-1" points="649.33 349.14 655.14 377.34 760.1 345.69 751.77 319.03 727.62 325.7 729.28 256.56 632.65 253.23 632.65 290.39 710.96 292.38 710.12 329.86 649.33 349.14"/>
        <rect class="cls-1" x="384.01" width="159.1" height="89.13"/>
        <path class="cls-1" d="M7319.14,7325.41s-67.06,41.23-100.38,52.89c0,0-10,8.33-245.73,4.17,0,0-1.67-.47-4.64-1.2l-.08,0c-38-6.84-63.92-9.28-81.58-9.4L6848.86,7382l-39.93,15.43-14.16-34.15s-60.8,4.17-68.3,43.32l-44.15-34.16h30.82s46.65-18.32,46.65-34.15-16.95-27.49-56.8-1.66L6536.55,7205l51.64-56.64s220,170.19,242.87,170.9c0,0,62,28.18,157,32.35,0,0,199.91,2.5,211.58-10,0,0,40.81-11.66,99.12-45.81Z" transform="translate(-6536.55 -6950.57)"/>
        <path class="cls-1" d="M6717.16,7303.64a5.62,5.62,0,0,1-4.39,2.1,5.53,5.53,0,0,1-3.5-1.24l-139-111.53a12,12,0,0,0-1.16-1.05l-2.95-2.36,2.18-2.73,2.42-3,2.41-3,39.7,31.82-.12.16,103.52,83A5.61,5.61,0,0,1,6717.16,7303.64Z" transform="translate(-6536.55 -6950.57)"/>
        <path class="cls-1" d="M7516.56,7168.76v147l-197.42,9.63-8.33-11.66.07-.07,40.48-47.83.49-.33c7.86-5.39,108.53-74.37,110.35-78,0,0,20.21-17.08,30.2-17.91C7500.72,7169,7512.75,7168.79,7516.56,7168.76Z" transform="translate(-6536.55 -6950.57)"/>
        <circle class="cls-1" cx="254.89" cy="386.09" r="12.08"/>
        <line class="cls-1" x1="48.93" y1="217.72" x2="223.24" y2="353.6"/>
        <polygon class="cls-1" points="0 254.48 9.16 261.98 60.81 204.5 51.65 197.84 0 254.48"/>
        <path class="cls-1" d="M6833.91,7348.74,6974.15,7368l174.23-2.64s60-1.66,74.13-11.66l69.75-32.76" transform="translate(-6536.55 -6950.57)"/>
      </g>
      <g>
        <path class="cls-2" d="M7495.12,7160.26s-19,6.47-27.29,14l-35,25.83-10.33-18.23-8,4.9,10.83,18.32-15.83,11.67-46.65,1.66-3.86-3.22-21.76-37.7,49.56-28.61-11.33-17.7-24.74-38.38-87.93,53.31,23.67,39,3.92,7.45s1.67,2.5,0,3.33l-38.52-.47-96.42-2.86v-8.33l16.66.83v-6.66l-15.83-.84,2.5-50.81s1.67-12.49-16.66-29.15l5.83-9.16,18.33,11.66,15-3.34v18.33h13.33v-18.33l36.65.84.83,16.66h8.33v-24.16l-35.82-.83v-3.32l2.08-27.28,43.11-10.05,18.13-4.33,41.65-10.83-4.71-18.75-72.76,19.58-1.66,5-45.82,18.32-31.65,8.33-20,28.33-135.78-9.17v-13.62s-4.17-19.7-9.16-25.53l100.79,1.67.41-97h-80v89.13H6966v-89.13h-8.25v89.13h-10.07l-27.49-.86v-88.27h-8v93.29l.1,2.92s-26.65,18.32-36.65,45l-46.94-20.7-26.9-8.68-4.46,19.38,34.15,10-11.66,25,44.44,22.7,11.37-25.2s5.83,29.15,29.16,35.82l-.84,21.65-124.11-11.66-89.77-2.94s-1.86,11.27-11.85,4.61l-27.49-20-6.67,6.66L6754.79,7225l-19.39,30.18,96,58.11-.83,10,15.83,5,3-9.3,5.34-9.86,19.16,8.33-5,25.82,16.66,1.67,2.5-18.33s71.64,12.49,93.29,11.66l129.22-1.66H7113V7302.5h9.17l-.84,49.15,27.08-.59v-2.54l2.08-43.52s12.49-3.33,13.33,5.83l7.87,36.8s24.34,0,23.64-3.8-9.42-44.12-9.42-44.12l60.79-19.28.83-37.49-78.3-2-1.25,39.89-15-.84,3.33-79.13,134.94,1.66a18.39,18.39,0,0,1,15.83,10.83l9.16,15.83s2.5,10-2.49,19.16c0,0-7.5,12.49-14.17,16.66l9.17,19.16s5,7.49-10,11.66l12.08,17.91,40.55-47.9,8.11-5.33,128.89-84.65,28.2-5v-10.58Zm-571.23-111,55.81-2.49c10.83,12.49,10,40,10,40s-55,10.83-55.81,11.66c-23.88,8.23-50.19-3.06-50.8-3.32h0C6897.23,7058.44,6923.89,7049.27,6923.89,7049.27ZM6706.53,7180.8s-3.88-6.49,1.78-10.28l45.75,33.47,1.56,1.05,2.5-3.33,9.16.83-8.33,15Zm128.23,130-8.63-4.64,22.18-35.2-70-44.1-22.18,35.2-3.86-2.9,32.49-55.81,100,9.16ZM7124.64,7280l-11.12-.39v-13.77l-136.71.69c-22.05.69-89.57-9.85-89.57-9.85L6875.57,7310l-17.49-6.66,44.15-88.3,3.91-.29-.16,2.37,212.18,14.55,2.29-33.29h8.35Zm8.33-140.77-3.34,52.48h-16.41l-202.38-45.51c-22.21-5.52-30-36.89-30-36.89s18.92,5.76,28.92,4.09c0,0,7.71-1,17.41-1.69,12.4-.93,28.06-1.47,35.06.86l156.61,10S7133.8,7123.41,7133,7139.24Z" transform="translate(-6536.55 -6950.57)"/>
        <rect class="cls-3" x="6836.17" y="7311.08" width="7.78" height="17.04" transform="translate(-8983.33 4126.37) rotate(-68.97)"/>
        <rect class="cls-3" x="7167.71" y="7324.46" width="23.5" height="6.01" transform="matrix(0.98, -0.21, 0.21, 0.98, -7896.29, -5308.03)"/>
        <rect class="cls-4" x="6694.33" y="7086.28" width="82.13" height="106.35" transform="translate(-9540.37 1407.47) rotate(-53.8)"/>
        <rect class="cls-5" x="6781.43" y="7225.18" width="41.6" height="82.72" transform="translate(-9508.63 2196.33) rotate(-57.78)"/>
        <polygon class="cls-6" points="581.62 281.1 369.43 266.56 374.29 195.64 376.08 169.5 588.27 184.05 581.62 281.1"/>
        <rect class="cls-7" x="6764.25" y="7046.1" width="15.56" height="31.65" transform="translate(-8248.59 4984.92) rotate(-76.08)"/>
        <rect class="cls-7" x="6802.01" y="7048.19" width="15.56" height="45.74" transform="translate(-8228.79 5028.51) rotate(-76.08)"/>
        <rect class="cls-7" x="6739.31" y="7059.37" width="25.82" height="6.02" transform="translate(-8264.08 4966.04) rotate(-76.08)"/>
        <rect class="cls-7" x="6830.89" y="7089.26" width="35.94" height="36.41" transform="translate(-9081.49 3186.65) rotate(-63.94)"/>
        <rect class="cls-8" x="472.72" width="30.82" height="89.13"/>
        <rect class="cls-7" x="552.69" width="22.49" height="49.98"/>
        <rect class="cls-7" x="7164.51" y="7058.42" width="89.4" height="26.09" transform="translate(-7954.77 -5127.51) rotate(-13.13)"/>
        <rect class="cls-7" x="7143.38" y="7129.62" width="85" height="41.65" transform="translate(-6738.61 7141.35) rotate(-88.07)"/>
        <rect class="cls-7" x="7190.43" y="7131.87" width="85" height="40.78" transform="translate(-6694.95 7190.13) rotate(-88.07)"/>
        <rect class="cls-7" x="7286.83" y="6983.94" width="47.57" height="28.75" transform="translate(-8077.13 -4859.17) rotate(-14.75)"/>
        <rect class="cls-7" x="7334.41" y="6970.92" width="16.65" height="45.09" transform="translate(-8074.83 -4851.16) rotate(-14.75)"/>
        <rect class="cls-7" x="7256.12" y="7025.44" width="58" height="39.16" transform="matrix(0.97, -0.25, 0.25, 0.97, -8089.85, -4864.12)"/>
        <rect class="cls-9" x="7340.75" y="7146.99" width="110.23" height="43.52" transform="translate(-9130.06 -2292.2) rotate(-30)"/>
        <rect class="cls-9" x="7263.06" y="7101.3" width="159.96" height="45.65" transform="translate(-9166.04 -2111.58) rotate(-31.23)"/>
        <polygon class="cls-10" points="649.33 349.14 655.14 377.34 760.1 345.69 751.77 319.03 727.62 325.7 729.28 256.56 632.65 253.23 632.65 290.39 710.96 292.38 710.12 329.86 649.33 349.14"/>
        <rect class="cls-7" x="384.01" width="159.1" height="89.13"/>
        <path class="cls-11" d="M7319.14,7325.41s-67.06,41.23-100.38,52.89c0,0-10,8.33-245.73,4.17,0,0-1.67-.47-4.64-1.2l-.08,0c-38-6.84-63.92-9.28-81.58-9.4L6848.86,7382l-39.93,15.43-14.16-34.15s-60.8,4.17-68.3,43.32l-44.15-34.16h30.82s46.65-18.32,46.65-34.15-16.95-27.49-56.8-1.66L6536.55,7205l51.64-56.64s220,170.19,242.87,170.9c0,0,62,28.18,157,32.35,0,0,199.91,2.5,211.58-10,0,0,40.81-11.66,99.12-45.81Z" transform="translate(-6536.55 -6950.57)"/>
        <path class="cls-12" d="M6717.16,7303.64a5.62,5.62,0,0,1-4.39,2.1,5.53,5.53,0,0,1-3.5-1.24l-139-111.53a12,12,0,0,0-1.16-1.05l-2.95-2.36,2.18-2.73,2.42-3,2.41-3,39.7,31.82-.12.16,103.52,83A5.61,5.61,0,0,1,6717.16,7303.64Z" transform="translate(-6536.55 -6950.57)"/>
        <path class="cls-13" d="M7516.56,7168.76v147l-197.42,9.63-8.33-11.66.07-.07,40.48-47.83.49-.33c7.86-5.39,108.53-74.37,110.35-78,0,0,20.21-17.08,30.2-17.91C7500.72,7169,7512.75,7168.79,7516.56,7168.76Z" transform="translate(-6536.55 -6950.57)"/>
        <circle class="cls-12" cx="254.89" cy="386.09" r="12.08"/>
        <line class="cls-14" x1="48.93" y1="217.72" x2="223.24" y2="353.6"/>
        <polygon class="cls-3" points="0 254.48 9.16 261.98 60.81 204.5 51.65 197.84 0 254.48"/>
        <path class="cls-15" d="M6833.91,7348.74,6974.15,7368l174.23-2.64s60-1.66,74.13-11.66l69.75-32.76" transform="translate(-6536.55 -6950.57)"/>
      </g>
    </g>
  </g>
</svg>
