<svg id="BARRA" xmlns="http://www.w3.org/2000/svg" viewBox="0 0 373.17 512">
  <defs>
    <style>
      .cls-1 {
        fill: #fcfcfc;
      }
    </style>
  </defs>
  <g id="Layer_26" data-name="Layer 26">
    <path class="cls-1" d="M6907.32,6841.38c-103,0-186.58,83.54-186.58,186.59a186.49,186.49,0,0,0,9.68,59.5v0a1.18,1.18,0,0,1,.07.2.94.94,0,0,0,.06.18c2.84,8.47,50.26,145.77,176.76,265.5,0,0,115.66-100.51,173.23-256a.08.08,0,0,0,0,0,185.93,185.93,0,0,0,13.34-69.41C7093.91,6924.92,7010.37,6841.38,6907.32,6841.38Zm0,278.8a93.49,93.49,0,1,1,93.48-94.46c0,.32,0,.65,0,1A93.49,93.49,0,0,1,6907.32,7120.18Z" transform="translate(-6720.74 -6841.38)"/>
    <path class="cls-1" d="M6730.43,7087.5a1.18,1.18,0,0,1,.07.2C6730.46,7087.6,6730.44,7087.53,6730.43,7087.5Z" transform="translate(-6720.74 -6841.38)"/>
  </g>
</svg>
