<svg xmlns="http://www.w3.org/2000/svg" viewBox="0 0 294.53 401.75"><defs><style>.cls-1{fill:#fcfcfc;}</style></defs><g id="BARRA"><g id="mapa"><path d="M6977.27,6780.57a144.15,144.15,0,0,0-136.54,190v0a.88.88,0,0,1,.05.15.48.48,0,0,0,.05.14c2.19,6.54,38.79,112.52,136.43,204.93,0,0,89.27-77.58,133.71-197.56l0,0a144.12,144.12,0,0,0-133.73-197.6Zm0,215.19a72.16,72.16,0,1,1,72.15-72.91c0,.25,0,.51,0,.75A72.16,72.16,0,0,1,6977.27,6995.76Z" transform="translate(-6833.26 -6774.01)"/><path class="cls-1" d="M6983.77,6774A144.15,144.15,0,0,0,6847.23,6964a0,0,0,0,0,0,0c0,.05,0,.1.05.15a.48.48,0,0,0,.05.14c2.19,6.54,38.79,112.52,136.43,204.93,0,0,89.27-77.58,133.71-197.56a0,0,0,0,0,0,0A144.1,144.1,0,0,0,6983.77,6774Zm0,215.19a72.16,72.16,0,1,1,72.15-72.9c0,.24,0,.5,0,.74A72.16,72.16,0,0,1,6983.77,6989.2Z" transform="translate(-6833.26 -6774.01)"/></g></g></svg>