<svg id="BARRA" xmlns="http://www.w3.org/2000/svg" viewBox="0 0 213.05 157.35">
  <defs>
    <style>
      .cls-1 {
        fill: #fff;
      }
    </style>
  </defs>
  <g id="Layer_24" data-name="Layer 24">
    <path class="cls-1" d="M7135.38,7042.15H6935.59a1.83,1.83,0,0,0-.33,0h-.05a6.64,6.64,0,0,0-6.27,6.63v119.64a6.64,6.64,0,0,0,6.27,6.63,2.42,2.42,0,0,0,.38,0h72.09v16.7h-31.21a3.8,3.8,0,0,0-2.72,1.13,3.85,3.85,0,0,0,2.72,6.58h117.71a3.86,3.86,0,0,0,0-7.71h-31.8v-16.7h73a6.65,6.65,0,0,0,6.65-6.65V7048.8A6.65,6.65,0,0,0,7135.38,7042.15Zm-10.34,116H6945.88v-99.06H7125Z" transform="translate(-6928.94 -7042.15)"/>
  </g>
</svg>
