<svg xmlns="http://www.w3.org/2000/svg" viewBox="0 0 444.1 327.07"><defs><style>.cls-1{fill:#fff;}</style></defs><g id="BARRA"><g id="palestra"><path d="M6861.28,7248.78H6456.74a3.66,3.66,0,0,0-.66,0H6456a13.46,13.46,0,0,0-12.69,13.43v242.24a13.46,13.46,0,0,0,12.69,13.43,5,5,0,0,0,.77,0h146v33.81h-63.19a7.68,7.68,0,0,0-5.51,2.29,7.8,7.8,0,0,0,5.51,13.32h238.34a7.81,7.81,0,0,0,0-15.61h-64.39V7518H6861.2a13.47,13.47,0,0,0,13.46-13.47V7262.25A13.47,13.47,0,0,0,6861.28,7248.78Zm-20.94,234.88H6477.58V7283.08h362.76Z" transform="translate(-6443.28 -7240.31)"/><path class="cls-1" d="M6874,7240.31H6469.46a3.66,3.66,0,0,0-.66,0h-.11a13.46,13.46,0,0,0-12.69,13.43V7496a13.46,13.46,0,0,0,12.69,13.43,5,5,0,0,0,.77,0h146v33.81h-63.19a7.68,7.68,0,0,0-5.51,2.29,7.8,7.8,0,0,0,5.51,13.32h238.34a7.82,7.82,0,0,0,7.79-7.79,7.81,7.81,0,0,0-7.79-7.82h-64.39v-33.81h147.73a13.47,13.47,0,0,0,13.46-13.47V7253.78A13.46,13.46,0,0,0,6874,7240.31Zm-20.94,234.88H6490.3V7274.61h362.76Z" transform="translate(-6443.28 -7240.31)"/></g></g></svg>