<svg xmlns="http://www.w3.org/2000/svg" viewBox="0 0 342.61 402.86"><defs><style>.cls-1{fill:#fff;}</style></defs><g id="BARRA"><g id="perfil"><path d="M6547.34,6974.44s-70.28.28-77.64,114.42c0,0-12.53,78.09,57.21,90.13h215.48s68.38-5.13,56.67-92.85c0,0-3-116.6-91-111.7,0,0-48.77,35.69-80,30.11,0,0-28.33-2.21-67.69-30.26Z" transform="translate(-6468.82 -6776.13)"/><circle cx="162.97" cy="103.56" r="95.89"/><path class="cls-1" d="M6558.37,6966.78s-70.29.27-77.64,114.41c0,0-12.53,78.1,57.21,90.13h215.48s68.38-5.13,56.67-92.85c0,0-3-116.6-91-111.69,0,0-48.77,35.68-80,30.1,0,0-28.33-2.21-67.69-30.25Z" transform="translate(-6468.82 -6776.13)"/><circle class="cls-1" cx="174" cy="95.89" r="95.89"/></g></g></svg>