<svg xmlns="http://www.w3.org/2000/svg" viewBox="0 0 398.6 352.56"><defs><style>.cls-1{fill:#fff;}</style></defs><g id="BARRA"><g id="suporte"><path d="M7545.54,6919.6A139.51,139.51,0,0,0,7283,6853.87a139.54,139.54,0,0,0-107.85,207.59s-14,61.87-13.4,68.91c0,0,2.78-.49,7.45-1.66,10.46-2.61,30.43-8.6,49.92-19.95a0,0,0,0,0,0,0c1.72,1.15,3.47,2.27,5.24,3.34a139.53,139.53,0,0,0,191.19-46.58c1.42-2.31,2.78-4.66,4.06-7.06q4.51-.44,8.94-1.16a138.72,138.72,0,0,0,54.93-21.65h0c25.68,15,52.19,20.6,56.7,21.48l.67.13c.51-5.84-9.05-49.43-12.33-64.1-.66-3-1.07-4.81-1.07-4.81a138.5,138.5,0,0,0,18-65.42C7545.53,6921.82,7545.54,6920.71,7545.54,6919.6Zm-321.13,19.89H7368.5a7.4,7.4,0,0,1,5.24,2.17l0,0a7.41,7.41,0,0,1-5.28,12.62H7224.41a7.42,7.42,0,1,1,0-14.83Zm151.51,52.61a7.29,7.29,0,0,1-.82,3.36,7.53,7.53,0,0,1-1.33,1.83,7.37,7.37,0,0,1-5.2,2.15h-20a7.34,7.34,0,0,1-6.53-4,7.19,7.19,0,0,1-.82-3.36,7.34,7.34,0,0,1,7.35-7.34h20a7.36,7.36,0,0,1,7.35,7.34Zm-161.75,0a7.42,7.42,0,0,1,7.41-7.42h94.91a7.42,7.42,0,0,1,5.25,2.17l0,0a7.4,7.4,0,0,1,2.13,5.21,7.31,7.31,0,0,1-.81,3.36,7.41,7.41,0,0,1-6.61,4.06h-94.91a7.43,7.43,0,0,1-7.41-7.42Zm161,47.5a7.42,7.42,0,0,1-6.61,4H7224.49a7.42,7.42,0,1,1,0-14.83h144.08a7.37,7.37,0,0,1,5.25,2.18l0,0a7.41,7.41,0,0,1,1.32,8.57Zm5.17-158.39a139.68,139.68,0,0,0-12-8.11,137.64,137.64,0,0,0-12.58-6.72h122.42a7.42,7.42,0,0,1,7.41,7.42,7.31,7.31,0,0,1-.81,3.36,7.23,7.23,0,0,1-1.36,1.88,7.44,7.44,0,0,1-5.24,2.17Zm104.35,85.26a7.55,7.55,0,0,1-1.37,1.89,7.37,7.37,0,0,1-5.24,2.17h-43.82q-.65-4.09-1.55-8.1-.74-3.41-1.65-6.73h47a7.42,7.42,0,0,1,7.42,7.41A7.31,7.31,0,0,1,7484.7,6966.47Zm2.9-44.12a7.1,7.1,0,0,1-1.37,1.88,7.39,7.39,0,0,1-5.24,2.18h-61.7q-2.23-4.14-4.76-8.12-2.16-3.44-4.52-6.72h71a7.42,7.42,0,0,1,7.42,7.42A7.31,7.31,0,0,1,7487.6,6922.35Z" transform="translate(-7157.04 -6780.11)"/><path class="cls-1" d="M7555.64,6920.06a139.51,139.51,0,0,0-262.56-65.73,139.54,139.54,0,0,0-107.85,207.59s-14,61.87-13.4,68.91c0,0,2.78-.49,7.45-1.66,10.46-2.61,30.43-8.6,49.92-19.95a0,0,0,0,0,0,0c1.72,1.15,3.47,2.27,5.24,3.34A139.53,139.53,0,0,0,7425.64,7066c1.42-2.31,2.78-4.66,4.06-7.06q4.52-.43,8.94-1.16a138.72,138.72,0,0,0,54.93-21.65h0c25.68,15,52.19,20.6,56.7,21.48l.67.13c.51-5.84-9.05-49.43-12.33-64.1-.66-3-1.07-4.81-1.07-4.81a138.5,138.5,0,0,0,18-65.42C7555.63,6922.28,7555.64,6921.17,7555.64,6920.06ZM7234.51,6940H7378.6a7.4,7.4,0,0,1,5.24,2.17l0,0a7.41,7.41,0,0,1-5.28,12.62H7234.51a7.42,7.42,0,1,1,0-14.83Zm118.93,47.42a7.33,7.33,0,0,1,5.2-2.15h20a7.33,7.33,0,0,1,6.53,10.7,7.53,7.53,0,0,1-1.33,1.83,7.37,7.37,0,0,1-5.2,2.15h-20a7.34,7.34,0,0,1-6.53-4,7.19,7.19,0,0,1-.82-3.36A7.33,7.33,0,0,1,7353.44,6987.37Zm-129.17,5.19a7.42,7.42,0,0,1,7.41-7.42h94.91a7.42,7.42,0,0,1,5.25,2.17l0,0a7.4,7.4,0,0,1,2.13,5.21,7.31,7.31,0,0,1-.81,3.36,7.41,7.41,0,0,1-6.61,4.06h-94.91a7.43,7.43,0,0,1-7.41-7.42Zm161,47.5a7.42,7.42,0,0,1-6.61,4H7234.59a7.42,7.42,0,1,1,0-14.83h144.08a7.37,7.37,0,0,1,5.25,2.18l0,0a7.41,7.41,0,0,1,1.32,8.57Zm5.17-158.39a139.68,139.68,0,0,0-12-8.11,137.64,137.64,0,0,0-12.58-6.72h122.42a7.42,7.42,0,0,1,7.41,7.42,7.31,7.31,0,0,1-.81,3.36,7.23,7.23,0,0,1-1.36,1.88,7.44,7.44,0,0,1-5.24,2.17Zm104.35,85.26a7.55,7.55,0,0,1-1.37,1.89,7.37,7.37,0,0,1-5.24,2.17h-43.82q-.65-4.09-1.55-8.1-.73-3.41-1.65-6.73h47a7.42,7.42,0,0,1,7.42,7.41A7.31,7.31,0,0,1,7494.8,6966.93Zm2.9-44.12a7.1,7.1,0,0,1-1.37,1.88,7.39,7.39,0,0,1-5.24,2.18h-61.7q-2.24-4.14-4.76-8.12-2.16-3.43-4.52-6.72h71a7.42,7.42,0,0,1,7.42,7.42A7.31,7.31,0,0,1,7497.7,6922.81Z" transform="translate(-7157.04 -6780.11)"/></g></g></svg>