<svg id="BARRA" xmlns="http://www.w3.org/2000/svg" viewBox="0 0 448.23 406.23">
  <defs>
    <style>
      .cls-1 {
        fill: #fff;
      }
    </style>
  </defs>
  <g id="Layer_25" data-name="Layer 25">
    <path class="cls-1" d="M7002,7114a160.85,160.85,0,0,0-158.92-135.35c-5.27,0-10.49.25-15.63.75A161,161,0,0,0,6703,7218.88s-16.17,71.38-15.46,79.5c0,0,33.68-6,66.19-24.93a0,0,0,0,0,0,0A160.9,160.9,0,0,0,7004,7139.56,162.25,162.25,0,0,0,7002,7114Zm-67.33,24.88a8.47,8.47,0,0,1-8.47,8.47h-23.12a8.47,8.47,0,1,1,0-16.94h23.12A8.47,8.47,0,0,1,6934.68,7138.85Zm-174.8-60.7h166.24a8.56,8.56,0,1,1,0,17.11H6759.88a8.56,8.56,0,1,1,0-17.11Zm-11.82,60.7a8.56,8.56,0,0,1,8.56-8.56h109.5a8.56,8.56,0,0,1,0,17.12h-109.5a8.57,8.57,0,0,1-8.56-8.56Zm11.91,59.47a8.56,8.56,0,1,1,0-17.11h166.24a8.56,8.56,0,0,1,0,17.11Z" transform="translate(-6682.15 -6894.27)"/>
    <path class="cls-1" d="M7130.38,7055.21a160.94,160.94,0,1,0-320.26,22.94h116a8.56,8.56,0,1,1,0,17.11H6813.53a159.32,159.32,0,0,0,13.53,35h39.06a8.56,8.56,0,0,1,0,17.12h-28.6a161.4,161.4,0,0,0,31.79,33.8h56.9a8.56,8.56,0,0,1,0,17.11h-30.47a160.18,160.18,0,0,0,73.7,17.83q7.92,0,15.64-.75a160,160,0,0,0,73.69-26.31,0,0,0,0,0,0,0C7091.29,7208.05,7125,7214,7125,7214c.71-8.12-15.46-79.5-15.46-79.5A160.16,160.16,0,0,0,7130.38,7055.21ZM6909.44,7063h-23.12a8.47,8.47,0,1,1,0-16.94h23.12a8.47,8.47,0,0,1,0,16.94Zm-23-52.06a8.56,8.56,0,0,1,0-17.11h166.24a8.56,8.56,0,1,1,0,17.11Zm45.79,133.93a8.48,8.48,0,0,1-6,2.48h-23.12a8.47,8.47,0,1,1,0-16.94h23.12a8.47,8.47,0,0,1,6,14.46Zm126.41-33.38a8.5,8.5,0,0,1-6,2.51H6886.32a8.56,8.56,0,0,1,0-17.11h166.24a8.55,8.55,0,0,1,6,14.6Zm3.35-50.91a8.53,8.53,0,0,1-6.05,2.51h-109.5a8.56,8.56,0,0,1,0-17.12h109.5a8.56,8.56,0,0,1,6.05,14.61Z" transform="translate(-6682.15 -6894.27)"/>
  </g>
</svg>
